<svg width="20" height="20" viewBox="0 0 20 20" fill="none" xmlns="http://www.w3.org/2000/svg">
<path fill-rule="evenodd" clip-rule="evenodd" d="M10 15C12.7614 15 15 12.7614 15 10C15 7.23857 12.7614 5 10 5C7.23857 5 5 7.23857 5 10C5 12.7614 7.23857 15 10 15ZM10 13.3333C11.8409 13.3333 13.3333 11.8409 13.3333 10C13.3333 8.15905 11.8409 6.66667 10 6.66667C8.15905 6.66667 6.66667 8.15905 6.66667 10C6.66667 11.8409 8.15905 13.3333 10 13.3333Z" fill="#FFFEF6"/>
<path d="M14.9998 4.1665C14.5396 4.1665 14.1665 4.5396 14.1665 4.99984C14.1665 5.46007 14.5396 5.83317 14.9998 5.83317C15.4601 5.83317 15.8332 5.46007 15.8332 4.99984C15.8332 4.5396 15.4601 4.1665 14.9998 4.1665Z" fill="#FFFEF6"/>
<path fill-rule="evenodd" clip-rule="evenodd" d="M1.37822 3.5633C0.833252 4.63286 0.833252 6.03299 0.833252 8.83325V11.1666C0.833252 13.9668 0.833252 15.367 1.37822 16.4365C1.85759 17.3773 2.62249 18.1423 3.5633 18.6216C4.63286 19.1666 6.03299 19.1666 8.83325 19.1666H11.1666C13.9668 19.1666 15.367 19.1666 16.4365 18.6216C17.3773 18.1423 18.1423 17.3773 18.6216 16.4365C19.1666 15.367 19.1666 13.9668 19.1666 11.1666V8.83325C19.1666 6.03299 19.1666 4.63286 18.6216 3.5633C18.1423 2.62249 17.3773 1.85759 16.4365 1.37822C15.367 0.833252 13.9668 0.833252 11.1666 0.833252H8.83325C6.03299 0.833252 4.63286 0.833252 3.5633 1.37822C2.62249 1.85759 1.85759 2.62249 1.37822 3.5633ZM11.1666 2.49992H8.83325C7.40562 2.49992 6.43513 2.50122 5.68499 2.5625C4.95429 2.6222 4.58062 2.73041 4.31995 2.86323C3.69274 3.18281 3.18281 3.69274 2.86323 4.31995C2.73041 4.58062 2.6222 4.95429 2.5625 5.68499C2.50122 6.43513 2.49992 7.40562 2.49992 8.83325V11.1666C2.49992 12.5943 2.50122 13.5647 2.5625 14.3148C2.6222 15.0456 2.73041 15.4193 2.86323 15.6799C3.18281 16.3071 3.69274 16.817 4.31995 17.1366C4.58062 17.2694 4.95429 17.3777 5.68499 17.4373C6.43513 17.4986 7.40562 17.4999 8.83325 17.4999H11.1666C12.5943 17.4999 13.5647 17.4986 14.3148 17.4373C15.0456 17.3777 15.4193 17.2694 15.6799 17.1366C16.3071 16.817 16.817 16.3071 17.1366 15.6799C17.2694 15.4193 17.3777 15.0456 17.4373 14.3148C17.4986 13.5647 17.4999 12.5943 17.4999 11.1666V8.83325C17.4999 7.40562 17.4986 6.43513 17.4373 5.68499C17.3777 4.95429 17.2694 4.58062 17.1366 4.31995C16.817 3.69274 16.3071 3.18281 15.6799 2.86323C15.4193 2.73041 15.0456 2.6222 14.3148 2.5625C13.5647 2.50122 12.5943 2.49992 11.1666 2.49992Z" fill="#FFFEF6"/>
</svg>
