<svg width="20" height="20" viewBox="0 0 20 20" fill="none" xmlns="http://www.w3.org/2000/svg">
<g clip-path="url(#clip0_121_271)">
<path d="M15.7607 14.0009H14.3988C13.8832 14.0009 13.7238 13.5909 12.7975 12.6522C11.9907 11.8709 11.6338 11.7659 11.4357 11.7659C11.1575 11.7659 11.0782 11.8453 11.0782 12.2291V13.4591C11.0782 13.7903 10.9725 13.9884 10.0994 13.9884C8.33817 13.8703 6.82442 12.9097 5.94567 11.5097L5.93255 11.4878C4.91255 10.2209 4.16067 8.69407 3.7888 7.02407L3.77505 6.95095C3.77505 6.75282 3.85442 6.5672 4.23817 6.5672H5.60005C5.9438 6.5672 6.0763 6.72595 6.20942 7.09595C6.88317 9.04095 8.00817 10.7472 8.4713 10.7472C8.64317 10.7472 8.72255 10.6678 8.72255 10.2316V8.2197C8.66942 7.29345 8.18005 7.2147 8.18005 6.88407C8.18567 6.7072 8.33067 6.56595 8.50817 6.56595C8.5138 6.56595 8.5188 6.56595 8.52442 6.56657H8.5238H10.6669C10.9582 6.56657 11.0638 6.72532 11.0638 7.06907V9.78157C11.0638 10.0722 11.1963 10.1784 11.2757 10.1784C11.4475 10.1784 11.5938 10.0722 11.9107 9.75532C12.5694 8.95095 13.1325 8.03095 13.5619 7.03907L13.5907 6.96407C13.6813 6.7372 13.8988 6.5797 14.1532 6.5797C14.165 6.5797 14.1763 6.58032 14.1882 6.58095H14.1863H15.5482C15.9582 6.58095 16.0513 6.79157 15.9582 7.08345C15.4119 8.28657 14.7982 9.32032 14.0869 10.2778L14.1194 10.2316C13.9744 10.4697 13.9213 10.5753 14.1194 10.8409C14.2644 11.0391 14.7413 11.4491 15.0588 11.8197C15.5182 12.2741 15.9032 12.8028 16.1938 13.3866L16.2094 13.4209C16.3419 13.8034 16.1432 14.0022 15.7594 14.0022L15.7607 14.0009ZM12.8775 0.627197H7.12317C1.8713 0.627197 0.628174 1.87032 0.628174 7.1222V12.8766C0.628174 18.1284 1.8713 19.3716 7.12317 19.3716H12.8775C18.1294 19.3716 19.3725 18.1284 19.3725 12.8766V7.1222C19.3725 1.87032 18.1157 0.627197 12.8775 0.627197Z" fill="#FFFEF6"/>
</g>
<defs>
<clipPath id="clip0_121_271">
<rect width="20" height="20" fill="white"/>
</clipPath>
</defs>
</svg>
