<svg width="20" height="20" viewBox="0 0 20 20" fill="none" xmlns="http://www.w3.org/2000/svg">
<path d="M5.01167 6.67178C5.10689 5.91867 6.08564 4.89512 6.8624 5.00869L6.86116 5.00745C7.61709 5.1511 8.21549 6.45217 8.55292 7.03721C8.792 7.46168 8.63675 7.89175 8.41375 8.07323C8.11292 8.31569 7.64249 8.65025 7.74119 8.98617C7.91667 9.58333 10 11.6667 11.0247 12.2589C11.4125 12.4831 11.6938 11.8918 11.9339 11.5889C12.1084 11.3559 12.5388 11.2167 12.9623 11.4467C13.5948 11.815 14.1907 12.2431 14.7417 12.725C15.0168 12.955 15.0814 13.2949 14.8908 13.6542C14.5549 14.2869 13.5836 15.1213 12.8785 14.9517C11.647 14.6557 6.66667 12.725 5.06694 7.13168C4.97698 6.86707 4.99963 6.76703 5.01167 6.67178Z" fill="#FFFEF6"/>
<path fill-rule="evenodd" clip-rule="evenodd" d="M9.99992 19.1666C8.98025 19.1666 8.41609 19.0572 7.49992 18.7499L5.74528 19.6273C4.6371 20.1813 3.33325 19.3755 3.33325 18.1365V16.2499C1.53871 14.5766 0.833252 12.6472 0.833252 9.99992C0.833252 4.93731 4.93731 0.833252 9.99992 0.833252C15.0625 0.833252 19.1666 4.93731 19.1666 9.99992C19.1666 15.0625 15.0625 19.1666 9.99992 19.1666ZM4.99992 15.5252L4.46988 15.0309C3.07564 13.7309 2.49992 12.2775 2.49992 9.99992C2.49992 5.85779 5.85779 2.49992 9.99992 2.49992C14.1421 2.49992 17.4999 5.85779 17.4999 9.99992C17.4999 14.1421 14.1421 17.4999 9.99992 17.4999C9.1785 17.4999 8.79325 17.4258 8.02988 17.1698L7.37364 16.9497L4.99992 18.1365V15.5252Z" fill="#FFFEF6"/>
</svg>
